<?xml version="1.0" encoding="utf-8"?>
<!-- Generator: Adobe Illustrator 17.1.0, SVG Export Plug-In . SVG Version: 6.00 Build 0)  -->
<!DOCTYPE svg PUBLIC "-//W3C//DTD SVG 1.1//EN" "http://www.w3.org/Graphics/SVG/1.1/DTD/svg11.dtd">
<svg version="1.1" id="Layer_1" xmlns="http://www.w3.org/2000/svg" xmlns:xlink="http://www.w3.org/1999/xlink" x="0px" y="0px"
	 viewBox="0 0 2350 1000" enable-background="new 0 0 2350 1000" xml:space="preserve">
<rect fill="#203264" width="2350" height="1000"/>
<g>
	<circle fill="#009999" cx="84.3" cy="822.6" r="99.2"/>
	<circle fill="#009999" cx="282.6" cy="822.6" r="99.2"/>
	<circle fill="#009999" cx="480.9" cy="822.6" r="99.2"/>
	<circle fill="#009999" cx="679.2" cy="822.6" r="99.2"/>
	<circle fill="#009999" cx="877.5" cy="822.6" r="99.2"/>
	<circle fill="#009999" cx="1075.8" cy="822.6" r="99.2"/>
	<circle fill="#009999" cx="1274.2" cy="822.6" r="99.2"/>
	<circle fill="#009999" cx="1472.5" cy="822.6" r="99.2"/>
	<circle fill="#009999" cx="1670.8" cy="822.6" r="99.2"/>
	<circle fill="#009999" cx="1869.1" cy="822.6" r="99.2"/>
	<circle fill="#009999" cx="2067.4" cy="822.6" r="99.2"/>
	<circle fill="#009999" cx="2265.7" cy="822.6" r="99.2"/>
</g>
<g>
	<circle fill="#203264" cx="84.3" cy="796.4" r="99.2"/>
	<circle fill="#203264" cx="282.6" cy="796.4" r="99.2"/>
	<circle fill="#203264" cx="480.9" cy="796.4" r="99.2"/>
	<circle fill="#203264" cx="679.2" cy="796.4" r="99.2"/>
	<circle fill="#203264" cx="877.5" cy="796.4" r="99.2"/>
	<circle fill="#203264" cx="1075.8" cy="796.4" r="99.2"/>
	<circle fill="#203264" cx="1274.2" cy="796.4" r="99.2"/>
	<circle fill="#203264" cx="1472.5" cy="796.4" r="99.2"/>
	<circle fill="#203264" cx="1670.8" cy="796.4" r="99.2"/>
	<circle fill="#203264" cx="1869.1" cy="796.4" r="99.2"/>
	<circle fill="#203264" cx="2067.4" cy="796.4" r="99.2"/>
	<circle fill="#203264" cx="2265.7" cy="796.4" r="99.2"/>
</g>
<g>
	<circle fill="#009999" cx="84.3" cy="598.1" r="99.2"/>
	<circle fill="#009999" cx="282.6" cy="598.1" r="99.2"/>
	<circle fill="#009999" cx="480.9" cy="598.1" r="99.2"/>
	<circle fill="#009999" cx="679.2" cy="598.1" r="99.2"/>
	<circle fill="#009999" cx="877.5" cy="598.1" r="99.2"/>
	<circle fill="#009999" cx="1075.8" cy="598.1" r="99.2"/>
	<circle fill="#009999" cx="1274.2" cy="598.1" r="99.2"/>
	<circle fill="#009999" cx="1472.5" cy="598.1" r="99.2"/>
	<circle fill="#009999" cx="1670.8" cy="598.1" r="99.2"/>
	<circle fill="#009999" cx="1869.1" cy="598.1" r="99.2"/>
	<circle fill="#009999" cx="2067.4" cy="598.1" r="99.2"/>
	<circle fill="#009999" cx="2265.7" cy="598.1" r="99.2"/>
</g>
<g>
	<circle fill="#203264" cx="84.3" cy="571.9" r="99.2"/>
	<circle fill="#203264" cx="282.6" cy="571.9" r="99.2"/>
	<circle fill="#203264" cx="480.9" cy="571.9" r="99.2"/>
	<circle fill="#203264" cx="679.2" cy="571.9" r="99.2"/>
	<circle fill="#203264" cx="877.5" cy="571.9" r="99.2"/>
	<circle fill="#203264" cx="1075.8" cy="571.9" r="99.2"/>
	<circle fill="#203264" cx="1274.2" cy="571.9" r="99.2"/>
	<circle fill="#203264" cx="1472.5" cy="571.9" r="99.2"/>
	<circle fill="#203264" cx="1670.8" cy="571.9" r="99.2"/>
	<circle fill="#203264" cx="1869.1" cy="571.9" r="99.2"/>
	<circle fill="#203264" cx="2067.4" cy="571.9" r="99.2"/>
	<circle fill="#203264" cx="2265.7" cy="571.9" r="99.2"/>
</g>
<g>
	<circle fill="#009999" cx="84.3" cy="373.6" r="99.2"/>
	<circle fill="#009999" cx="282.6" cy="373.6" r="99.2"/>
	<circle fill="#009999" cx="480.9" cy="373.6" r="99.2"/>
	<circle fill="#009999" cx="679.2" cy="373.6" r="99.2"/>
	<circle fill="#009999" cx="877.5" cy="373.6" r="99.2"/>
	<circle fill="#009999" cx="1075.8" cy="373.6" r="99.2"/>
	<circle fill="#009999" cx="1274.2" cy="373.6" r="99.2"/>
	<circle fill="#009999" cx="1472.5" cy="373.6" r="99.2"/>
	<circle fill="#009999" cx="1670.8" cy="373.6" r="99.2"/>
	<circle fill="#009999" cx="1869.1" cy="373.6" r="99.2"/>
	<circle fill="#009999" cx="2067.4" cy="373.6" r="99.2"/>
	<circle fill="#009999" cx="2265.7" cy="373.6" r="99.2"/>
</g>
<g>
	<circle fill="#203264" cx="84.3" cy="347.4" r="99.2"/>
	<circle fill="#203264" cx="282.6" cy="347.4" r="99.2"/>
	<circle fill="#203264" cx="480.9" cy="347.4" r="99.2"/>
	<circle fill="#203264" cx="679.2" cy="347.4" r="99.2"/>
	<circle fill="#203264" cx="877.5" cy="347.4" r="99.2"/>
	<circle fill="#203264" cx="1075.8" cy="347.4" r="99.2"/>
	<circle fill="#203264" cx="1274.2" cy="347.4" r="99.2"/>
	<circle fill="#203264" cx="1472.5" cy="347.4" r="99.2"/>
	<circle fill="#203264" cx="1670.8" cy="347.4" r="99.2"/>
	<circle fill="#203264" cx="1869.1" cy="347.4" r="99.2"/>
	<circle fill="#203264" cx="2067.4" cy="347.4" r="99.2"/>
	<circle fill="#203264" cx="2265.7" cy="347.4" r="99.2"/>
</g>
<g>
	<circle fill="#009999" cx="84.3" cy="149.1" r="99.2"/>
	<circle fill="#009999" cx="282.6" cy="149.1" r="99.2"/>
	<circle fill="#009999" cx="480.9" cy="149.1" r="99.2"/>
	<circle fill="#009999" cx="679.2" cy="149.1" r="99.2"/>
	<circle fill="#009999" cx="877.5" cy="149.1" r="99.2"/>
	<circle fill="#009999" cx="1075.8" cy="149.1" r="99.2"/>
	<circle fill="#009999" cx="1274.2" cy="149.1" r="99.2"/>
	<circle fill="#009999" cx="1472.5" cy="149.1" r="99.2"/>
	<circle fill="#009999" cx="1670.8" cy="149.1" r="99.2"/>
	<circle fill="#009999" cx="1869.1" cy="149.1" r="99.2"/>
	<circle fill="#009999" cx="2067.4" cy="149.1" r="99.2"/>
	<circle fill="#009999" cx="2265.7" cy="149.1" r="99.2"/>
</g>
<g>
	<circle fill="#203264" cx="84.3" cy="122.9" r="99.2"/>
	<circle fill="#203264" cx="282.6" cy="122.9" r="99.2"/>
	<circle fill="#203264" cx="480.9" cy="122.9" r="99.2"/>
	<circle fill="#203264" cx="679.2" cy="122.9" r="99.2"/>
	<circle fill="#203264" cx="877.5" cy="122.9" r="99.2"/>
	<circle fill="#203264" cx="1075.8" cy="122.9" r="99.2"/>
	<circle fill="#203264" cx="1274.2" cy="122.9" r="99.2"/>
	<circle fill="#203264" cx="1472.5" cy="122.9" r="99.2"/>
	<circle fill="#203264" cx="1670.8" cy="122.9" r="99.2"/>
	<circle fill="#203264" cx="1869.1" cy="122.9" r="99.2"/>
	<circle fill="#203264" cx="2067.4" cy="122.9" r="99.2"/>
	<circle fill="#203264" cx="2265.7" cy="122.9" r="99.2"/>
</g>
</svg>
