<?xml version="1.0" encoding="utf-8"?>
<!-- Generator: Adobe Illustrator 17.1.0, SVG Export Plug-In . SVG Version: 6.00 Build 0)  -->
<!DOCTYPE svg PUBLIC "-//W3C//DTD SVG 1.1//EN" "http://www.w3.org/Graphics/SVG/1.1/DTD/svg11.dtd">
<svg version="1.1" id="Layer_1" xmlns="http://www.w3.org/2000/svg" xmlns:xlink="http://www.w3.org/1999/xlink" x="0px" y="0px"
	 viewBox="0 0 612 792" style="enable-background:new 0 0 612 792;" xml:space="preserve">
<style type="text/css">
	.st0{fill:#FFFFFF;stroke:#F26722;stroke-width:11;stroke-miterlimit:10;}
	.st1{display:none;}
	.st2{fill:#F26722;}
</style>
<circle class="st0" cx="306" cy="392.4" r="194.8"/>
<g id="r6VpcT.tif" class="st1">
	
		<image style="display:inline;overflow:visible;" width="2304" height="832" id="Layer_0_1_" xlink:href="72027ACAF033239A.png"  transform="matrix(0.2394 0 0 0.2394 22 217)">
	</image>
</g>
<path class="st2" d="M129.9,389.7l13.4,10.7l10.9,3.1l-5.7,0.9c0,0,3.3,4.4,28.2,11.6s48.2,8.8,48.2,8.8s20.8,18.6,40.3,17.7
	c4.3-0.2-14.4-15.5-14.4-15.5s17.1,0.9,37.9,0.2c20.8-0.7,34.8-4.8,38.3-3.5c3.5,1.3,5.5,2.9,6.8,3.9c1.3,0.9,3.7,5,8.1,2
	c4.4-2.9,8.5-10.3,12.2-11.2c3.7-0.9,18.2-4.1,21-3.9c2.8,0.2,11.8,6.1,14.4,5.7c2.6-0.4-0.7-3.5,1.3-5c2-1.5,3.5-3.9,3.5-3.9
	l-6.3-0.6c0,0,12.7-2.4,21.4-2.2c8.7,0.2,15.8,4.8,21.7,7.5s20.1,9.1,27.8,6.5c7.7-2.6-9.6-13.3-12.3-16c-2.8-2.8-5.9-6.4-1.7-12
	c4.2-5.5,20.6-24.1,21.4-25.8c0.7-1.7,1-3.3,1.7-3.2c0.7,0.2,2.6,1.2,4-0.8c1.4-2,3.4-5.8,4.9-7.2c1.4-1.4,5-3.6,5.5-4.9
	c0,0-17.2,0.8-35.1,12.9c-17.9,12.1-24.3,18.7-29.4,22.4s-9.9,6.3-16,6.4s-17.8-2.3-17.8-2.3l4.1-0.8c0,0-5.6-1.9-7.1-3.5
	s-2.4-4.1-5.4-2.8s-6.3,3.3-10.4,4.1c-4.1,0.8-27-6.5-37.7-8.7s-34.3-7.7-42.7-9.2c0,0,5.1,0.7,6.9-0.6s-0.7-4-2.1-6
	c-1.3-2.1-3.4-6.2-2.5-11.1c0.8-5,2.9-9.5,1.2-11c-1.7-1.5-7.3,1.6-11.2,6.4c-4,4.8-12.1,14.3-14.3,16.1s-6.3,4.1-13.8,4.4
	c-7.5,0.2-29.3,2.2-35.1,3c-5.8,0.8-28,4.1-32.8,5.2c-4.7,1.1-16.9,4.6-20.7,5.4c-3.7,0.8-18.5,3.1-21.9,3.7
	C135.3,387.4,128.4,388.5,129.9,389.7z"/>
<g>
</g>
<g>
</g>
<g>
</g>
<g>
</g>
<g>
</g>
<g>
</g>
</svg>
